<svg width="51" height="51" viewBox="0 0 51 51" fill="none" xmlns="http://www.w3.org/2000/svg">
<rect x="0.0720215" y="0.5" width="50" height="50" rx="25" fill="white"/>
<path fill-rule="evenodd" clip-rule="evenodd" d="M25.0124 5.5C13.9859 5.5 5.07202 14.6667 5.07202 26.0071C5.07202 35.0721 10.7834 42.7454 18.7067 45.4612C19.6973 45.6654 20.0602 45.02 20.0602 44.4771C20.0602 44.0017 20.0275 42.3721 20.0275 40.6742C14.4806 41.8967 13.3255 38.2296 13.3255 38.2296C12.4341 35.8529 11.1132 35.2421 11.1132 35.2421C9.29774 33.9858 11.2455 33.9858 11.2455 33.9858C13.2594 34.1217 14.3161 36.0908 14.3161 36.0908C16.0986 39.2142 18.9708 38.3317 20.1263 37.7883C20.2912 36.4642 20.8198 35.5475 21.381 35.0383C16.9569 34.5629 12.3022 32.7975 12.3022 24.9204C12.3022 22.6796 13.0941 20.8462 14.3488 19.4204C14.1508 18.9113 13.4573 16.8058 14.5471 13.9879C14.5471 13.9879 16.2308 13.4446 20.0271 16.0929C21.6525 15.644 23.3287 15.4157 25.0124 15.4137C26.6961 15.4137 28.4124 15.6517 29.9973 16.0929C33.7941 13.4446 35.4777 13.9879 35.4777 13.9879C36.5675 16.8058 35.8737 18.9113 35.6757 19.4204C36.9634 20.8462 37.7226 22.6796 37.7226 24.9204C37.7226 32.7975 33.0679 34.5287 28.6108 35.0383C29.3373 35.6833 29.9643 36.9054 29.9643 38.8408C29.9643 41.5908 29.9316 43.7979 29.9316 44.4767C29.9316 45.02 30.2949 45.6654 31.2851 45.4617C39.2084 42.745 44.9198 35.0721 44.9198 26.0071C44.9524 14.6667 36.0059 5.5 25.0124 5.5Z" fill="#212121"/>
</svg>
