<svg width="51" height="51" viewBox="0 0 51 51" fill="none" xmlns="http://www.w3.org/2000/svg">
<rect x="0.0720215" y="0.5" width="50" height="50" rx="25" fill="white"/>
<g clip-path="url(#clip0_110_70)">
<path d="M19.7275 21.9342H15.7125C15.5343 21.9342 15.3899 22.0787 15.3899 22.2568V35.1554C15.3899 35.3336 15.5343 35.4779 15.7125 35.4779H19.7275C19.9057 35.4779 20.0501 35.3336 20.0501 35.1554V22.2568C20.0501 22.0787 19.9057 21.9342 19.7275 21.9342Z" fill="#212121"/>
<path d="M17.7214 15.522C16.2605 15.522 15.072 16.7092 15.072 18.1685C15.072 19.6285 16.2605 20.8161 17.7214 20.8161C19.1812 20.8161 20.3687 19.6284 20.3687 18.1685C20.3688 16.7092 19.1812 15.522 17.7214 15.522Z" fill="#212121"/>
<path d="M29.94 21.6136C28.3274 21.6136 27.1353 22.3068 26.4123 23.0945V22.2568C26.4123 22.0786 26.2679 21.9342 26.0897 21.9342H22.2446C22.0664 21.9342 21.9221 22.0786 21.9221 22.2568V35.1554C21.9221 35.3336 22.0664 35.4779 22.2446 35.4779H26.2509C26.4291 35.4779 26.5735 35.3336 26.5735 35.1554V28.7736C26.5735 26.623 27.1576 25.7852 28.6567 25.7852C30.2893 25.7852 30.4191 27.1283 30.4191 28.8842V35.1554C30.4191 35.3336 30.5635 35.478 30.7417 35.478H34.7494C34.9276 35.478 35.072 35.3336 35.072 35.1554V28.0803C35.072 24.8826 34.4623 21.6136 29.94 21.6136Z" fill="#212121"/>
</g>
<defs>
<clipPath id="clip0_110_70">
<rect width="20" height="20" fill="white" transform="translate(15.072 15.5)"/>
</clipPath>
</defs>
</svg>
